<?xml version="1.0" encoding="utf-8"?>
<!-- Generator: Adobe Illustrator 25.0.0, SVG Export Plug-In . SVG Version: 6.00 Build 0)  -->
<svg version="1.1" id="图层_1" xmlns="http://www.w3.org/2000/svg" xmlns:xlink="http://www.w3.org/1999/xlink" x="0px" y="0px"
	 viewBox="0 0 32 32" style="enable-background:new 0 0 32 32;" xml:space="preserve">
<style type="text/css">
	.st0{fill:#5B5B5B;}
	.st1{fill:#F5A700;}
	.st2{fill:#FFFFFF;}
</style>
<rect x="968.9" y="-321.5" class="st0" width="915" height="757"/>
<text transform="matrix(1 0 0 1 238.208 22.5529)" class="st2" style="font-family:'ITCAvantGardeStd-Bk'; font-size:18.0769px;">Akso eGMP</text>
<g>
	<g>
		<path class="st1" d="M25.6,14.1c-5.4,0-10.5,1.5-14.8,4l-3.1,7.6c5.7-6.5,13.8-10.7,23-11.2C29,14.3,27.3,14.1,25.6,14.1z"/>
		<polygon class="st2" points="16.2,4.8 13.8,10.7 20.5,27.2 25.8,27.2 		"/>
		<polygon class="st2" points="10.9,4.8 1.3,27.2 6.5,27.2 13.5,10 13.5,10 15.7,4.8 		"/>
	</g>
	<g>
		<path class="st2" d="M21.2,8L21.2,8c-0.2,0-0.4-0.1-0.5-0.2s-0.2-0.3-0.2-0.4s-0.1-0.1-0.2-0.1h-0.1v0.4c0,0.2,0,0.2,0.2,0.2V8
			h-0.6V7.9c0.2,0,0.2,0,0.2-0.2v-1c0-0.2,0-0.2-0.2-0.2V6.4h0.6c0.1,0,0.3,0,0.4,0.1C20.9,6.6,21,6.7,21,6.8c0,0.2-0.1,0.4-0.3,0.4
			c0,0.1,0.1,0.2,0.2,0.3C21,7.6,21,7.7,21.1,7.7C21.1,7.9,21.1,7.9,21.2,8L21.2,8z M20.3,7.2c0.1,0,0.2,0,0.3-0.1s0.1-0.2,0.1-0.3
			c0-0.2-0.1-0.3-0.3-0.3c0,0,0,0-0.1,0h-0.1c0,0,0,0,0,0.1L20.3,7.2C20.2,7.2,20.3,7.2,20.3,7.2z"/>
		<path class="st2" d="M20.4,8.4c-0.7,0-1.2-0.6-1.2-1.2S19.7,6,20.4,6c0.7,0,1.2,0.6,1.2,1.2C21.6,7.9,21.1,8.4,20.4,8.4z
			 M20.4,6.1c-0.6,0-1.1,0.5-1.1,1.1s0.5,1.1,1.1,1.1s1.1-0.5,1.1-1.1l0,0C21.5,6.6,21,6.1,20.4,6.1z"/>
	</g>
</g>
</svg>
